<svg id="visual" viewBox="0 0 900 450" width="900" height="450" xmlns="http://www.w3.org/2000/svg" xmlns:xlink="http://www.w3.org/1999/xlink" version="1.1"><rect x="0" y="0" width="900" height="450" fill="#f7f7f7"></rect><defs><linearGradient id="grad1_0" x1="50%" y1="100%" x2="100%" y2="0%"><stop offset="10%" stop-color="#533cfa" stop-opacity="1"></stop><stop offset="90%" stop-color="#533cfa" stop-opacity="1"></stop></linearGradient></defs><defs><linearGradient id="grad1_1" x1="50%" y1="100%" x2="100%" y2="0%"><stop offset="10%" stop-color="#533cfa" stop-opacity="1"></stop><stop offset="90%" stop-color="#9c7afb" stop-opacity="1"></stop></linearGradient></defs><defs><linearGradient id="grad1_2" x1="50%" y1="100%" x2="100%" y2="0%"><stop offset="10%" stop-color="#ceb8fa" stop-opacity="1"></stop><stop offset="90%" stop-color="#9c7afb" stop-opacity="1"></stop></linearGradient></defs><defs><linearGradient id="grad1_3" x1="50%" y1="100%" x2="100%" y2="0%"><stop offset="10%" stop-color="#ceb8fa" stop-opacity="1"></stop><stop offset="90%" stop-color="#f7f7f7" stop-opacity="1"></stop></linearGradient></defs><defs><linearGradient id="grad2_0" x1="0%" y1="100%" x2="50%" y2="0%"><stop offset="10%" stop-color="#533cfa" stop-opacity="1"></stop><stop offset="90%" stop-color="#533cfa" stop-opacity="1"></stop></linearGradient></defs><defs><linearGradient id="grad2_1" x1="0%" y1="100%" x2="50%" y2="0%"><stop offset="10%" stop-color="#9c7afb" stop-opacity="1"></stop><stop offset="90%" stop-color="#533cfa" stop-opacity="1"></stop></linearGradient></defs><defs><linearGradient id="grad2_2" x1="0%" y1="100%" x2="50%" y2="0%"><stop offset="10%" stop-color="#9c7afb" stop-opacity="1"></stop><stop offset="90%" stop-color="#ceb8fa" stop-opacity="1"></stop></linearGradient></defs><defs><linearGradient id="grad2_3" x1="0%" y1="100%" x2="50%" y2="0%"><stop offset="10%" stop-color="#f7f7f7" stop-opacity="1"></stop><stop offset="90%" stop-color="#ceb8fa" stop-opacity="1"></stop></linearGradient></defs><g transform="translate(900, 450)"><path d="M-247.5 0C-243.1 -30 -238.7 -59.9 -228.7 -94.7C-218.7 -129.5 -203 -169.1 -171.1 -171.1C-139.2 -173.2 -90.9 -137.7 -59.7 -144.1C-28.5 -150.6 -14.2 -199 0 -247.5L0 0Z" fill="#e3d7f9"></path><path d="M-185.6 0C-182.3 -22.5 -179 -45 -171.5 -71C-164 -97.1 -152.3 -126.8 -128.3 -128.3C-104.4 -129.9 -68.2 -103.2 -44.8 -108.1C-21.3 -112.9 -10.7 -149.3 0 -185.6L0 0Z" fill="#b699fb"></path><path d="M-123.7 0C-121.5 -15 -119.3 -30 -114.3 -47.4C-109.3 -64.7 -101.5 -84.5 -85.6 -85.6C-69.6 -86.6 -45.5 -68.8 -29.8 -72.1C-14.2 -75.3 -7.1 -99.5 0 -123.7L0 0Z" fill="#7d5bfb"></path><path d="M-61.9 0C-60.8 -7.5 -59.7 -15 -57.2 -23.7C-54.7 -32.4 -50.8 -42.3 -42.8 -42.8C-34.8 -43.3 -22.7 -34.4 -14.9 -36C-7.1 -37.6 -3.6 -49.8 0 -61.9L0 0Z" fill="#533cfa"></path></g><g transform="translate(0, 0)"><path d="M247.5 0C219 22.6 190.6 45.3 181.1 75C171.6 104.7 181 141.6 169.7 169.7C158.4 197.8 126.4 217.2 94.7 228.7C63 240.2 31.5 243.8 0 247.5L0 0Z" fill="#e3d7f9"></path><path d="M185.6 0C164.3 17 142.9 33.9 135.8 56.3C128.7 78.6 135.7 106.2 127.3 127.3C118.8 148.4 94.8 162.9 71 171.5C47.2 180.1 23.6 182.9 0 185.6L0 0Z" fill="#b699fb"></path><path d="M123.8 0C109.5 11.3 95.3 22.6 90.5 37.5C85.8 52.4 90.5 70.8 84.9 84.9C79.2 98.9 63.2 108.6 47.4 114.3C31.5 120.1 15.7 121.9 0 123.8L0 0Z" fill="#7d5bfb"></path><path d="M61.9 0C54.8 5.7 47.6 11.3 45.3 18.8C42.9 26.2 45.2 35.4 42.4 42.4C39.6 49.5 31.6 54.3 23.7 57.2C15.7 60 7.9 61 0 61.9L0 0Z" fill="#533cfa"></path></g></svg>