<?xml version="1.0" standalone="no"?><svg xmlns="http://www.w3.org/2000/svg" viewBox="0 0 1440 320"><path fill="#a2d9ff" fill-opacity="0.15" d="M0,192L21.8,197.3C43.6,203,87,213,131,186.7C174.5,160,218,96,262,74.7C305.5,53,349,75,393,106.7C436.4,139,480,181,524,181.3C567.3,181,611,139,655,122.7C698.2,107,742,117,785,128C829.1,139,873,149,916,133.3C960,117,1004,75,1047,69.3C1090.9,64,1135,96,1178,128C1221.8,160,1265,192,1309,208C1352.7,224,1396,224,1418,224L1440,224L1440,320L1418.2,320C1396.4,320,1353,320,1309,320C1265.5,320,1222,320,1178,320C1134.5,320,1091,320,1047,320C1003.6,320,960,320,916,320C872.7,320,829,320,785,320C741.8,320,698,320,655,320C610.9,320,567,320,524,320C480,320,436,320,393,320C349.1,320,305,320,262,320C218.2,320,175,320,131,320C87.3,320,44,320,22,320L0,320Z"></path></svg>